<svg xmlns="http://www.w3.org/2000/svg" width="97" height="96" viewBox="0 0 97 96" fill="none">
  <g clip-path="url(#clip0_303_192)">
    <path d="M36.3748 79.6826C54.232 79.6826 68.7082 65.4125 68.7082 47.8095C68.7082 30.2066 54.232 15.9365 36.3748 15.9365C18.5176 15.9365 4.0415 30.2066 4.0415 47.8095C4.0415 65.4125 18.5176 79.6826 36.3748 79.6826Z" fill="#0F1322"/>
    <path d="M68.7085 16.9724V25.2992C78.1256 28.5662 84.8752 37.411 84.8752 47.8096C84.8752 58.2081 78.1256 67.0529 68.7085 70.3199V78.6467C82.6522 75.1008 92.9585 62.6703 92.9585 47.8096C92.9585 32.9488 82.6522 20.5183 68.7085 16.9724Z" fill="#0F1322"/>
    <ellipse cx="36.2416" cy="48.3407" rx="24.5165" ry="22.8423" fill="#5F6370"/>
  </g>
  <defs>
    <clipPath id="clip0_303_192">
      <rect width="97" height="95.619" rx="25" fill="white"/>
    </clipPath>
  </defs>
</svg>
