<svg xmlns="http://www.w3.org/2000/svg" width="29" height="30" viewBox="0 0 29 30" fill="none">
  <path fill-rule="evenodd" clip-rule="evenodd" d="M14.2965 0.000127332C14.2965 5.70084e-05 14.2964 0 14.2963 6.03967e-10C6.4017 7.44628e-05 0 6.88538 0 15.3798C0 21.6336 3.46944 27.0145 8.45008 29.4178C9.31293 29.8342 10.7534 30.192 10.7534 29.234C10.7534 27.7681 9.30127 26.8174 7.90288 26.3776C6.60001 25.9678 6.09595 24.9958 5.95906 24.6669C5.92855 24.5936 5.90381 24.5179 5.87532 24.4438C5.65984 23.8832 5.41675 23.459 5.18826 23.1424C4.71804 22.491 3.4107 21.4915 4.20711 21.3856C4.49779 21.347 4.57844 21.3679 4.86056 21.4479C5.82018 21.7199 6.39988 22.582 6.56806 22.8649C6.60381 22.925 6.63646 22.9881 6.67115 23.0489C7.76201 24.9594 9.39607 24.7549 10.3523 24.413C10.6248 24.3155 10.8151 23.9497 10.8857 23.6691C11.0626 22.9655 10.5932 22.0286 9.89447 21.8334C7.37008 21.1278 5.17355 19.3572 5.17355 14.577C5.17355 13.7991 5.29346 13.0871 5.51312 12.4398C5.96981 11.094 6.38944 10.2439 6.35906 8.82307C6.33405 7.65364 7.49949 6.24887 8.57829 6.70098C8.65861 6.73464 8.74179 6.77132 8.82783 6.81128C10.0914 7.398 11.4973 7.67387 12.8818 7.519C13.351 7.46652 13.8244 7.43926 14.2965 7.43698C14.7692 7.43926 15.2433 7.46654 15.7135 7.51912C17.0977 7.67391 18.5031 7.39708 19.7663 6.81014C19.8518 6.77041 19.9344 6.73392 20.0143 6.70042C21.0918 6.24835 22.2569 7.65173 22.2329 8.81997C22.2037 10.2422 22.6245 11.0939 23.0798 12.4416C23.2982 13.0883 23.417 13.7995 23.417 14.5765C23.417 18.5999 21.8654 20.4862 19.87 21.4005C18.7609 21.9086 17.859 23.7932 17.859 25.0131C17.859 27.071 17.8424 28.7272 17.8424 29.2337C17.8424 29.643 18.1 30.1226 18.8244 29.9715C24.5015 27.9356 28.5931 22.1726 28.5931 15.3798C28.5929 6.88589 22.1919 0.000329359 14.2966 0.000254665C14.2965 0.000254664 14.2965 0.000197655 14.2965 0.000127332Z" fill="#0F1322"/>
  <path d="M5.41476 22.0819C5.41479 22.0819 5.41482 22.0819 5.41481 22.0819C5.38324 22.1582 5.27158 22.181 5.16984 22.1289C5.06568 22.079 5.00767 21.9748 5.04129 21.8981C5.07207 21.8192 5.18405 21.7975 5.2875 21.8503C5.39159 21.9004 5.45077 22.0055 5.41472 22.0818C5.4147 22.0819 5.41474 22.0819 5.41476 22.0819ZM5.99407 22.7769C5.994 22.7768 5.99389 22.7768 5.99382 22.7769C5.92584 22.8447 5.79266 22.8131 5.70228 22.7055C5.60853 22.5985 5.59101 22.4551 5.66037 22.3861C5.73092 22.3184 5.86019 22.3504 5.95394 22.4574C6.04716 22.5658 6.06566 22.7079 5.99431 22.7769C5.99424 22.777 5.99413 22.777 5.99407 22.7769ZM6.55787 23.6622C6.55787 23.6623 6.55783 23.6623 6.55777 23.6624C6.47016 23.728 6.32677 23.6666 6.23827 23.5299C6.15067 23.3929 6.15067 23.2286 6.24063 23.1631C6.32894 23.0974 6.47027 23.1568 6.56024 23.2923C6.64732 23.431 6.64736 23.5952 6.55797 23.662C6.55791 23.662 6.55787 23.6621 6.55787 23.6622ZM7.33014 24.5182C7.32997 24.5183 7.32983 24.5184 7.32971 24.5185C7.2515 24.6112 7.08453 24.5862 6.96246 24.4597C6.8377 24.3357 6.8029 24.1592 6.88126 24.0665C6.96081 23.9733 7.12866 23.9993 7.25153 24.1251C7.3762 24.2488 7.41388 24.4254 7.33053 24.5179C7.33042 24.518 7.33029 24.5181 7.33014 24.5182ZM8.39523 25.0152C8.36043 25.1357 8.19992 25.1904 8.03775 25.139C7.87605 25.0862 7.77023 24.9454 7.80338 24.8237C7.83652 24.7022 7.99821 24.6454 8.16133 24.7001C8.32303 24.7526 8.42885 24.8927 8.39523 25.0152ZM9.56558 25.107C9.5655 25.1071 9.56546 25.1072 9.56546 25.1073C9.56935 25.2341 9.43209 25.3389 9.26242 25.3414C9.09126 25.3458 8.95276 25.2429 8.95111 25.1181C8.95111 24.99 9.08558 24.8863 9.2565 24.8828C9.42617 24.8794 9.56556 24.9812 9.56569 25.1067C9.56569 25.1068 9.56565 25.1069 9.56558 25.107ZM10.654 24.9081C10.654 24.9081 10.654 24.9081 10.654 24.9081C10.6743 25.0316 10.5562 25.1586 10.3874 25.1924C10.2217 25.2256 10.0678 25.1486 10.0465 25.0261C10.0262 24.8993 10.1464 24.7722 10.3121 24.7394C10.4811 24.7081 10.6326 24.7826 10.654 24.9081C10.654 24.9081 10.654 24.9081 10.654 24.9081Z" fill="#0F1322"/>
</svg>
