<svg xmlns="http://www.w3.org/2000/svg" width="69" height="70" viewBox="0 0 69 70" fill="none">
  <path fill-rule="evenodd" clip-rule="evenodd" d="M34.4997 0.000296019C34.4997 0.000132532 34.4996 -1.27969e-10 34.4994 1.30319e-09C15.4484 0.000166774 0 16.007 0 35.7546C0 50.9048 9.09123 63.8512 21.9266 69.0577C23.0245 69.503 24.3552 70.1222 25.2971 69.4035C25.7576 69.0522 25.9496 68.4827 25.9496 67.9626C25.9496 64.5437 22.6058 62.2923 19.3081 61.3904C16.0111 60.4888 14.7367 58.1618 14.3875 57.362C14.3086 57.1813 14.2449 56.9933 14.1717 56.8103C13.4891 55.1048 12.6927 53.9439 12.012 53.1773C11.1028 52.1532 9.12722 51.7265 9.11631 50.357C9.11342 49.9927 9.5434 49.8251 9.95387 49.748C10.4355 49.6575 10.9338 49.6843 11.4133 49.7852C13.9104 50.3107 15.4166 52.4556 15.8459 53.1495C15.9347 53.2931 16.016 53.4444 16.1021 53.5896C18.7503 58.0513 22.7225 57.5434 25.023 56.7406C25.6523 56.5209 26.0971 55.689 26.2642 55.0437C26.6842 53.4217 25.602 51.2138 23.9821 50.7858C17.8463 49.1646 12.4846 45.0652 12.4846 33.8883C12.4846 32.0962 12.7688 30.4545 13.2898 28.9605C14.3915 25.8016 15.3944 23.7625 15.3437 20.4174C15.3033 17.7488 17.9923 14.5285 20.4814 15.4916C20.7613 15.5998 21.0562 15.7231 21.3663 15.8632C24.3709 17.2204 27.6962 17.857 30.9728 17.4924C32.1422 17.3623 33.3225 17.2948 34.4997 17.2894C35.6783 17.2948 36.8606 17.3624 38.0324 17.4927C41.3084 17.8571 44.6326 17.2182 47.6362 15.8605C47.9448 15.721 48.2383 15.5982 48.5169 15.4903C51.003 14.5272 53.6913 17.7443 53.6533 20.4102C53.6056 23.7584 54.6114 25.8012 55.7095 28.9646C56.2276 30.4572 56.5091 32.0971 56.5091 33.8872C56.5091 43.3681 52.6622 47.7444 47.7522 49.837C45.1749 50.9354 43.0966 55.3485 43.0966 58.15C43.0966 62.9341 43.0567 66.7844 43.0567 67.962C43.0567 68.9135 43.6782 70.0284 45.4264 69.6773C59.1262 64.9442 69 51.5466 69 35.7546C68.9994 16.0082 53.5528 0.000759963 34.5 0.000592039C34.4999 0.000592038 34.4997 0.000459506 34.4997 0.000296019Z" fill="#0F1322"/>
  <path d="M13.0664 51.3355C13.0664 51.3354 13.0665 51.3355 13.0665 51.3356C12.9903 51.5129 12.7209 51.5661 12.4754 51.4448C12.224 51.3287 12.084 51.0866 12.1651 50.9083C12.2394 50.7248 12.5096 50.6745 12.7593 50.797C13.0105 50.9136 13.1533 51.1578 13.0663 51.3354C13.0662 51.3355 13.0663 51.3356 13.0664 51.3355ZM14.4643 52.9513C14.4642 52.9512 14.4639 52.9511 14.4638 52.9513C14.2997 53.109 13.9783 53.0355 13.7602 52.7852C13.534 52.5366 13.4917 52.2032 13.6591 52.0428C13.8293 51.8853 14.1413 51.9599 14.3675 52.2085C14.5925 52.4606 14.6371 52.7908 14.4649 52.9513C14.4648 52.9515 14.4645 52.9515 14.4643 52.9513ZM15.8249 55.0094C15.8249 55.0096 15.8248 55.0097 15.8247 55.0099C15.6133 55.1623 15.2672 55.0196 15.0536 54.7018C14.8423 54.3833 14.8423 54.0014 15.0594 53.8492C15.2724 53.6964 15.6135 53.8344 15.8306 54.1494C16.0408 54.472 16.0408 54.8537 15.8251 55.0089C15.825 55.009 15.8249 55.0092 15.8249 55.0094ZM17.6885 56.9994C17.6881 56.9996 17.6878 56.9998 17.6875 57.0002C17.4987 57.2157 17.0958 57.1575 16.8012 56.8635C16.5002 56.5751 16.4162 56.1648 16.6053 55.9493C16.7973 55.7326 17.2023 55.793 17.4988 56.0855C17.7997 56.373 17.8906 56.7836 17.6895 56.9986C17.6892 56.9989 17.6889 56.9992 17.6885 56.9994ZM20.2588 58.1548C20.1748 58.4349 19.7874 58.5622 19.3961 58.4426C19.0059 58.32 18.7505 57.9926 18.8305 57.7096C18.9105 57.4271 19.3007 57.2951 19.6943 57.4224C20.0845 57.5444 20.3399 57.87 20.2588 58.1548ZM23.083 58.3683C23.0828 58.3684 23.0827 58.3687 23.0827 58.369C23.0921 58.6636 22.7609 58.9074 22.3514 58.9133C21.9384 58.9233 21.6042 58.6841 21.6002 58.394C21.6002 58.0962 21.9247 57.8552 22.3372 57.8469C22.7466 57.8392 23.083 58.0758 23.0833 58.3676C23.0833 58.3678 23.0832 58.3681 23.083 58.3683ZM25.7095 57.9058C25.7095 57.9058 25.7096 57.9058 25.7096 57.9058C25.7585 58.1929 25.4735 58.4882 25.0663 58.5669C24.6663 58.6439 24.295 58.4651 24.2436 58.1803C24.1945 57.8854 24.4847 57.59 24.8846 57.5136C25.2924 57.4408 25.6579 57.6141 25.7095 57.9059C25.7095 57.9059 25.7095 57.9059 25.7095 57.9058Z" fill="#0F1322"/>
</svg>
