<svg xmlns="http://www.w3.org/2000/svg" width="91" height="90" viewBox="0 0 91 90" fill="none">
  <path d="M41.7083 63.0874C41.7083 65.1284 43.4146 66.7984 45.5 66.7984C47.5854 66.7984 49.2917 65.1284 49.2917 63.0874C49.2917 61.0463 47.5854 59.3763 45.5 59.3763C43.4146 59.3763 41.7083 61.0463 41.7083 63.0874ZM41.7083 11.1331V25.9771H49.2917V18.852C62.1454 20.6518 72.0417 31.4509 72.0417 44.5322C72.0417 58.8753 60.1548 70.5094 45.5 70.5094C30.8452 70.5094 18.9583 58.8753 18.9583 44.5322C18.9583 38.2977 21.1954 32.6013 24.9302 28.111L45.5 48.2433L50.8652 42.9922L25.0819 17.7572L25.044 17.8314C16.7592 23.9175 11.375 33.6033 11.375 44.5322C11.375 62.976 26.6175 77.9314 45.481 77.9314C64.3446 77.9314 79.625 62.976 79.625 44.5322C79.625 26.0885 64.3446 11.1331 45.481 11.1331H41.7083ZM68.25 44.5322C68.25 42.4912 66.5438 40.8212 64.4583 40.8212C62.3729 40.8212 60.6667 42.4912 60.6667 44.5322C60.6667 46.5733 62.3729 48.2433 64.4583 48.2433C66.5438 48.2433 68.25 46.5733 68.25 44.5322ZM22.75 44.5322C22.75 46.5733 24.4563 48.2433 26.5417 48.2433C28.6271 48.2433 30.3333 46.5733 30.3333 44.5322C30.3333 42.4912 28.6271 40.8212 26.5417 40.8212C24.4563 40.8212 22.75 42.4912 22.75 44.5322Z" fill="#0F1322"/>
</svg>
